<mxfile type="github" version="15.4.1" host="app.diagrams.net" modified="2021-10-03T02:18:41.437Z" agent="5.0 (Windows NT 10.0; Win64; x64) AppleWebKit/537.36 (KHTML, like Gecko) Chrome/58.0.3029.110 Safari/537.36 Edge/16.16299" etag="Z64Mm8q_JkLTQazjdsb-">
  <diagram id="KnQJH4l8-xngm2lJGw7-" name="Page-1">
    <mxGraphModel grid="0" dx="1075" dy="688" gridSize="10" guides="1" tooltips="1" connect="1" arrows="1" fold="1" page="1" pageScale="1" pageWidth="827" pageHeight="1169" math="0" shadow="0">
      <root>
        <mxCell id="0" />
        <mxCell id="1" parent="0" />
        <mxCell id="ELINH8FFPVn-ywCd5U-3-1" value="π(s)" parent="1" style="rounded=1;whiteSpace=wrap;html=1;fillColor=#fff2cc;strokeColor=#d6b656;" vertex="1">
          <mxGeometry as="geometry" x="240" y="60" width="70" height="30" />
        </mxCell>
        <mxCell id="ELINH8FFPVn-ywCd5U-3-3" value="V(s)" parent="1" style="rounded=1;whiteSpace=wrap;html=1;fillColor=#ffe6cc;strokeColor=#d79b00;" vertex="1">
          <mxGeometry as="geometry" x="379" y="60" width="70" height="30" />
        </mxCell>
        <mxCell id="ELINH8FFPVn-ywCd5U-3-4" value="Network" parent="1" style="rounded=1;whiteSpace=wrap;html=1;fillColor=#dae8fc;strokeColor=#6c8ebf;" vertex="1">
          <mxGeometry as="geometry" x="300" y="120" width="90" height="40" />
        </mxCell>
        <mxCell id="ELINH8FFPVn-ywCd5U-3-5" value="Input(s)" parent="1" style="rounded=1;whiteSpace=wrap;html=1;fillColor=#d5e8d4;strokeColor=#82b366;" vertex="1">
          <mxGeometry as="geometry" x="302" y="190" width="88" height="40" />
        </mxCell>
        <mxCell id="ELINH8FFPVn-ywCd5U-3-8" value="" parent="1" style="endArrow=open;endFill=1;endSize=12;html=1;rounded=0;entryX=0.5;entryY=1;entryDx=0;entryDy=0;" target="ELINH8FFPVn-ywCd5U-3-1" edge="1">
          <mxGeometry as="geometry" width="160" relative="1">
            <mxPoint as="sourcePoint" x="330" y="120" />
            <mxPoint as="targetPoint" x="490" y="270" />
          </mxGeometry>
        </mxCell>
        <mxCell id="ELINH8FFPVn-ywCd5U-3-9" value="" parent="1" style="endArrow=open;endFill=1;endSize=12;html=1;rounded=0;entryX=0.5;entryY=1;entryDx=0;entryDy=0;" target="ELINH8FFPVn-ywCd5U-3-3" edge="1">
          <mxGeometry as="geometry" width="160" relative="1">
            <mxPoint as="sourcePoint" x="360" y="120" />
            <mxPoint as="targetPoint" x="285" y="100" />
          </mxGeometry>
        </mxCell>
        <mxCell id="ELINH8FFPVn-ywCd5U-3-10" value="" parent="1" style="endArrow=open;endFill=1;endSize=12;html=1;rounded=0;entryX=0.5;entryY=1;entryDx=0;entryDy=0;exitX=0.5;exitY=0;exitDx=0;exitDy=0;" target="ELINH8FFPVn-ywCd5U-3-4" edge="1" source="ELINH8FFPVn-ywCd5U-3-5">
          <mxGeometry as="geometry" width="160" relative="1">
            <mxPoint as="sourcePoint" x="340" y="130" />
            <mxPoint as="targetPoint" x="285" y="100" />
          </mxGeometry>
        </mxCell>
        <mxCell id="ELINH8FFPVn-ywCd5U-3-12" value="" parent="1" style="whiteSpace=wrap;html=1;aspect=fixed;shadow=0;fillColor=none;strokeColor=#9673a6;strokeWidth=3;perimeterSpacing=0;" vertex="1">
          <mxGeometry as="geometry" x="228.5" y="22.5" width="235" height="235" />
        </mxCell>
        <mxCell id="ELINH8FFPVn-ywCd5U-3-13" value="π(s)" parent="1" style="rounded=1;whiteSpace=wrap;html=1;fillColor=#fff2cc;strokeColor=#d6b656;" vertex="1">
          <mxGeometry as="geometry" x="100" y="356.25" width="60" height="32.5" />
        </mxCell>
        <mxCell id="ELINH8FFPVn-ywCd5U-3-14" value="V(s)" parent="1" style="rounded=1;whiteSpace=wrap;html=1;fillColor=#ffe6cc;strokeColor=#d79b00;" vertex="1">
          <mxGeometry as="geometry" x="182" y="358.75" width="58" height="30" />
        </mxCell>
        <mxCell id="ELINH8FFPVn-ywCd5U-3-15" value="Network" parent="1" style="rounded=1;whiteSpace=wrap;html=1;fillColor=#dae8fc;strokeColor=#6c8ebf;" vertex="1">
          <mxGeometry as="geometry" x="123.5" y="410" width="78.5" height="32.5" />
        </mxCell>
        <mxCell id="ELINH8FFPVn-ywCd5U-3-16" value="Input(s)" parent="1" style="rounded=1;whiteSpace=wrap;html=1;fillColor=#d5e8d4;strokeColor=#82b366;" vertex="1">
          <mxGeometry as="geometry" x="125.5" y="470" width="76.5" height="32.5" />
        </mxCell>
        <mxCell id="ELINH8FFPVn-ywCd5U-3-17" value="" parent="1" style="endArrow=open;endFill=1;endSize=12;html=1;rounded=0;entryX=0.5;entryY=1;entryDx=0;entryDy=0;exitX=0.5;exitY=0;exitDx=0;exitDy=0;" target="ELINH8FFPVn-ywCd5U-3-13" edge="1" source="ELINH8FFPVn-ywCd5U-3-15">
          <mxGeometry as="geometry" width="160" relative="1">
            <mxPoint as="sourcePoint" x="151.5" y="387.5" />
            <mxPoint as="targetPoint" x="311.5" y="537.5" />
          </mxGeometry>
        </mxCell>
        <mxCell id="ELINH8FFPVn-ywCd5U-3-18" value="" parent="1" style="endArrow=open;endFill=1;endSize=12;html=1;rounded=0;entryX=0.5;entryY=1;entryDx=0;entryDy=0;exitX=0.5;exitY=0;exitDx=0;exitDy=0;" target="ELINH8FFPVn-ywCd5U-3-14" edge="1" source="ELINH8FFPVn-ywCd5U-3-15">
          <mxGeometry as="geometry" width="160" relative="1">
            <mxPoint as="sourcePoint" x="181.5" y="387.5" />
            <mxPoint as="targetPoint" x="106.5" y="367.5" />
          </mxGeometry>
        </mxCell>
        <mxCell id="ELINH8FFPVn-ywCd5U-3-19" value="" parent="1" style="endArrow=open;endFill=1;endSize=12;html=1;rounded=0;entryX=0.5;entryY=1;entryDx=0;entryDy=0;" target="ELINH8FFPVn-ywCd5U-3-15" edge="1">
          <mxGeometry as="geometry" width="160" relative="1">
            <mxPoint as="sourcePoint" x="163" y="470" />
            <mxPoint as="targetPoint" x="106.5" y="367.5" />
          </mxGeometry>
        </mxCell>
        <mxCell id="ELINH8FFPVn-ywCd5U-3-20" value="" parent="1" style="whiteSpace=wrap;html=1;aspect=fixed;shadow=0;fillColor=none;strokeColor=#9673a6;strokeWidth=3;perimeterSpacing=0;" vertex="1">
          <mxGeometry as="geometry" x="80" y="340" width="180" height="180" />
        </mxCell>
        <mxCell id="ELINH8FFPVn-ywCd5U-3-55" parent="1" style="edgeStyle=none;rounded=0;orthogonalLoop=1;jettySize=auto;html=1;" edge="1" source="ELINH8FFPVn-ywCd5U-3-21">
          <mxGeometry as="geometry" relative="1">
            <mxPoint as="targetPoint" x="163.75" y="570" />
          </mxGeometry>
        </mxCell>
        <mxCell id="ELINH8FFPVn-ywCd5U-3-21" value="Worker 1" parent="1" style="text;html=1;strokeColor=none;fillColor=none;align=center;verticalAlign=middle;whiteSpace=wrap;rounded=0;shadow=0;" vertex="1">
          <mxGeometry as="geometry" x="133.75" y="540" width="60" height="30" />
        </mxCell>
        <mxCell id="ELINH8FFPVn-ywCd5U-3-22" value="π(s)" parent="1" style="rounded=1;whiteSpace=wrap;html=1;fillColor=#fff2cc;strokeColor=#d6b656;" vertex="1">
          <mxGeometry as="geometry" x="303.5" y="356.25" width="60" height="32.5" />
        </mxCell>
        <mxCell id="ELINH8FFPVn-ywCd5U-3-23" value="V(s)" parent="1" style="rounded=1;whiteSpace=wrap;html=1;fillColor=#ffe6cc;strokeColor=#d79b00;" vertex="1">
          <mxGeometry as="geometry" x="385.5" y="358.75" width="58" height="30" />
        </mxCell>
        <mxCell id="ELINH8FFPVn-ywCd5U-3-24" value="Network" parent="1" style="rounded=1;whiteSpace=wrap;html=1;fillColor=#dae8fc;strokeColor=#6c8ebf;" vertex="1">
          <mxGeometry as="geometry" x="327" y="410" width="78.5" height="32.5" />
        </mxCell>
        <mxCell id="ELINH8FFPVn-ywCd5U-3-25" value="Input(s)" parent="1" style="rounded=1;whiteSpace=wrap;html=1;fillColor=#d5e8d4;strokeColor=#82b366;" vertex="1">
          <mxGeometry as="geometry" x="329" y="470" width="76.5" height="32.5" />
        </mxCell>
        <mxCell id="ELINH8FFPVn-ywCd5U-3-26" value="" parent="1" style="endArrow=open;endFill=1;endSize=12;html=1;rounded=0;entryX=0.5;entryY=1;entryDx=0;entryDy=0;exitX=0.5;exitY=0;exitDx=0;exitDy=0;" target="ELINH8FFPVn-ywCd5U-3-22" edge="1" source="ELINH8FFPVn-ywCd5U-3-24">
          <mxGeometry as="geometry" width="160" relative="1">
            <mxPoint as="sourcePoint" x="355" y="387.5" />
            <mxPoint as="targetPoint" x="515" y="537.5" />
          </mxGeometry>
        </mxCell>
        <mxCell id="ELINH8FFPVn-ywCd5U-3-27" value="" parent="1" style="endArrow=open;endFill=1;endSize=12;html=1;rounded=0;entryX=0.5;entryY=1;entryDx=0;entryDy=0;exitX=0.5;exitY=0;exitDx=0;exitDy=0;" target="ELINH8FFPVn-ywCd5U-3-23" edge="1" source="ELINH8FFPVn-ywCd5U-3-24">
          <mxGeometry as="geometry" width="160" relative="1">
            <mxPoint as="sourcePoint" x="385" y="387.5" />
            <mxPoint as="targetPoint" x="310" y="367.5" />
          </mxGeometry>
        </mxCell>
        <mxCell id="ELINH8FFPVn-ywCd5U-3-28" value="" parent="1" style="endArrow=open;endFill=1;endSize=12;html=1;rounded=0;entryX=0.5;entryY=1;entryDx=0;entryDy=0;" target="ELINH8FFPVn-ywCd5U-3-24" edge="1">
          <mxGeometry as="geometry" width="160" relative="1">
            <mxPoint as="sourcePoint" x="366.5" y="470" />
            <mxPoint as="targetPoint" x="310" y="367.5" />
          </mxGeometry>
        </mxCell>
        <mxCell id="ELINH8FFPVn-ywCd5U-3-29" value="" parent="1" style="whiteSpace=wrap;html=1;aspect=fixed;shadow=0;fillColor=none;strokeColor=#9673a6;strokeWidth=3;perimeterSpacing=0;" vertex="1">
          <mxGeometry as="geometry" x="283.5" y="340" width="180" height="180" />
        </mxCell>
        <mxCell id="ELINH8FFPVn-ywCd5U-3-30" value="Worker 2" parent="1" style="text;html=1;strokeColor=none;fillColor=none;align=center;verticalAlign=middle;whiteSpace=wrap;rounded=0;shadow=0;" vertex="1">
          <mxGeometry as="geometry" x="337.25" y="540" width="60" height="30" />
        </mxCell>
        <mxCell id="ELINH8FFPVn-ywCd5U-3-40" value="π(s)" parent="1" style="rounded=1;whiteSpace=wrap;html=1;fillColor=#fff2cc;strokeColor=#d6b656;" vertex="1">
          <mxGeometry as="geometry" x="580" y="356.25" width="60" height="32.5" />
        </mxCell>
        <mxCell id="ELINH8FFPVn-ywCd5U-3-41" value="V(s)" parent="1" style="rounded=1;whiteSpace=wrap;html=1;fillColor=#ffe6cc;strokeColor=#d79b00;" vertex="1">
          <mxGeometry as="geometry" x="662" y="358.75" width="58" height="30" />
        </mxCell>
        <mxCell id="ELINH8FFPVn-ywCd5U-3-42" value="Network" parent="1" style="rounded=1;whiteSpace=wrap;html=1;fillColor=#dae8fc;strokeColor=#6c8ebf;" vertex="1">
          <mxGeometry as="geometry" x="603.5" y="410" width="78.5" height="32.5" />
        </mxCell>
        <mxCell id="ELINH8FFPVn-ywCd5U-3-43" value="Input(s)" parent="1" style="rounded=1;whiteSpace=wrap;html=1;fillColor=#d5e8d4;strokeColor=#82b366;" vertex="1">
          <mxGeometry as="geometry" x="605.5" y="470" width="76.5" height="32.5" />
        </mxCell>
        <mxCell id="ELINH8FFPVn-ywCd5U-3-44" value="" parent="1" style="endArrow=open;endFill=1;endSize=12;html=1;rounded=0;entryX=0.5;entryY=1;entryDx=0;entryDy=0;exitX=0.5;exitY=0;exitDx=0;exitDy=0;" target="ELINH8FFPVn-ywCd5U-3-40" edge="1" source="ELINH8FFPVn-ywCd5U-3-42">
          <mxGeometry as="geometry" width="160" relative="1">
            <mxPoint as="sourcePoint" x="631.5" y="387.5" />
            <mxPoint as="targetPoint" x="791.5" y="537.5" />
          </mxGeometry>
        </mxCell>
        <mxCell id="ELINH8FFPVn-ywCd5U-3-45" value="" parent="1" style="endArrow=open;endFill=1;endSize=12;html=1;rounded=0;entryX=0.5;entryY=1;entryDx=0;entryDy=0;exitX=0.5;exitY=0;exitDx=0;exitDy=0;" target="ELINH8FFPVn-ywCd5U-3-41" edge="1" source="ELINH8FFPVn-ywCd5U-3-42">
          <mxGeometry as="geometry" width="160" relative="1">
            <mxPoint as="sourcePoint" x="661.5" y="387.5" />
            <mxPoint as="targetPoint" x="586.5" y="367.5" />
          </mxGeometry>
        </mxCell>
        <mxCell id="ELINH8FFPVn-ywCd5U-3-46" value="" parent="1" style="endArrow=open;endFill=1;endSize=12;html=1;rounded=0;entryX=0.5;entryY=1;entryDx=0;entryDy=0;" target="ELINH8FFPVn-ywCd5U-3-42" edge="1">
          <mxGeometry as="geometry" width="160" relative="1">
            <mxPoint as="sourcePoint" x="643" y="470" />
            <mxPoint as="targetPoint" x="586.5" y="367.5" />
          </mxGeometry>
        </mxCell>
        <mxCell id="ELINH8FFPVn-ywCd5U-3-47" value="" parent="1" style="whiteSpace=wrap;html=1;aspect=fixed;shadow=0;fillColor=none;strokeColor=#9673a6;strokeWidth=3;perimeterSpacing=0;" vertex="1">
          <mxGeometry as="geometry" x="560" y="340" width="180" height="180" />
        </mxCell>
        <mxCell id="ELINH8FFPVn-ywCd5U-3-48" value="Worker n" parent="1" style="text;html=1;strokeColor=none;fillColor=none;align=center;verticalAlign=middle;whiteSpace=wrap;rounded=0;shadow=0;" vertex="1">
          <mxGeometry as="geometry" x="613.75" y="540" width="60" height="30" />
        </mxCell>
        <mxCell id="ELINH8FFPVn-ywCd5U-3-49" value="Enviorment 1" parent="1" style="rounded=1;whiteSpace=wrap;html=1;shadow=0;strokeWidth=3;fillColor=#b0e3e6;strokeColor=#0e8088;" vertex="1">
          <mxGeometry as="geometry" x="103.75" y="630" width="120" height="60" />
        </mxCell>
        <mxCell id="ELINH8FFPVn-ywCd5U-3-50" value="Enviorment 2" parent="1" style="rounded=1;whiteSpace=wrap;html=1;shadow=0;strokeWidth=3;fillColor=#b0e3e6;strokeColor=#0e8088;" vertex="1">
          <mxGeometry as="geometry" x="310" y="630" width="120" height="60" />
        </mxCell>
        <mxCell id="ELINH8FFPVn-ywCd5U-3-52" value="Enviorment n" parent="1" style="rounded=1;whiteSpace=wrap;html=1;shadow=0;strokeWidth=3;fillColor=#b0e3e6;strokeColor=#0e8088;" vertex="1">
          <mxGeometry as="geometry" x="590" y="630" width="120" height="60" />
        </mxCell>
        <mxCell id="ELINH8FFPVn-ywCd5U-3-54" value="" parent="1" style="endArrow=block;startArrow=block;endFill=1;startFill=1;html=1;rounded=0;fillColor=#dae8fc;strokeColor=#6c8ebf;" edge="1">
          <mxGeometry as="geometry" width="160" relative="1">
            <mxPoint as="sourcePoint" x="163" y="570" />
            <mxPoint as="targetPoint" x="163" y="610" />
          </mxGeometry>
        </mxCell>
        <mxCell id="ELINH8FFPVn-ywCd5U-3-58" value="" parent="1" style="endArrow=block;startArrow=block;endFill=1;startFill=1;html=1;rounded=0;fillColor=#dae8fc;strokeColor=#6c8ebf;" edge="1">
          <mxGeometry as="geometry" width="160" relative="1">
            <mxPoint as="sourcePoint" x="363.5" y="570" />
            <mxPoint as="targetPoint" x="363.5" y="610" />
            <Array as="points">
              <mxPoint x="363.5" y="590" />
            </Array>
          </mxGeometry>
        </mxCell>
        <mxCell id="ELINH8FFPVn-ywCd5U-3-59" value="" parent="1" style="endArrow=block;startArrow=block;endFill=1;startFill=1;html=1;rounded=0;fillColor=#dae8fc;strokeColor=#6c8ebf;" edge="1">
          <mxGeometry as="geometry" width="160" relative="1">
            <mxPoint as="sourcePoint" x="642.25" y="570" />
            <mxPoint as="targetPoint" x="642.25" y="610" />
            <Array as="points">
              <mxPoint x="642.25" y="590" />
            </Array>
          </mxGeometry>
        </mxCell>
        <mxCell id="ELINH8FFPVn-ywCd5U-3-60" value="" parent="1" style="endArrow=block;startArrow=block;endFill=1;startFill=1;html=1;rounded=0;fillColor=#dae8fc;strokeColor=#6c8ebf;strokeWidth=3;" edge="1">
          <mxGeometry as="geometry" width="160" relative="1">
            <mxPoint as="sourcePoint" x="270" y="270" />
            <mxPoint as="targetPoint" x="160" y="330" />
            <Array as="points" />
          </mxGeometry>
        </mxCell>
        <mxCell id="ELINH8FFPVn-ywCd5U-3-61" value="" parent="1" style="endArrow=block;startArrow=block;endFill=1;startFill=1;html=1;rounded=0;fillColor=#dae8fc;strokeColor=#6c8ebf;strokeWidth=3;" edge="1">
          <mxGeometry as="geometry" width="160" relative="1">
            <mxPoint as="sourcePoint" x="430" y="270" />
            <mxPoint as="targetPoint" x="630" y="330" />
            <Array as="points" />
          </mxGeometry>
        </mxCell>
        <mxCell id="ELINH8FFPVn-ywCd5U-3-62" value="" parent="1" style="endArrow=block;startArrow=block;endFill=1;startFill=1;html=1;rounded=0;fillColor=#dae8fc;strokeColor=#6c8ebf;strokeWidth=3;" edge="1">
          <mxGeometry as="geometry" width="160" relative="1">
            <mxPoint as="sourcePoint" x="362" y="270" />
            <mxPoint as="targetPoint" x="362" y="330" />
            <Array as="points" />
          </mxGeometry>
        </mxCell>
        <mxCell id="ELINH8FFPVn-ywCd5U-3-63" value="" parent="1" style="ellipse;whiteSpace=wrap;html=1;aspect=fixed;shadow=0;strokeWidth=3;fillColor=#000000;" vertex="1">
          <mxGeometry as="geometry" x="487" y="425" width="5" height="5" />
        </mxCell>
        <mxCell id="ELINH8FFPVn-ywCd5U-3-64" value="" parent="1" style="ellipse;whiteSpace=wrap;html=1;aspect=fixed;shadow=0;strokeWidth=3;fillColor=#000000;" vertex="1">
          <mxGeometry as="geometry" x="507" y="425" width="5" height="5" />
        </mxCell>
        <mxCell id="ELINH8FFPVn-ywCd5U-3-66" value="" parent="1" style="ellipse;whiteSpace=wrap;html=1;aspect=fixed;shadow=0;strokeWidth=3;fillColor=#000000;" vertex="1">
          <mxGeometry as="geometry" x="527" y="425" width="5" height="5" />
        </mxCell>
        <mxCell id="ELINH8FFPVn-ywCd5U-3-70" value="" parent="1" style="ellipse;whiteSpace=wrap;html=1;aspect=fixed;shadow=0;strokeWidth=3;fillColor=#000000;" vertex="1">
          <mxGeometry as="geometry" x="497" y="654" width="5" height="5" />
        </mxCell>
        <mxCell id="ELINH8FFPVn-ywCd5U-3-71" value="" parent="1" style="ellipse;whiteSpace=wrap;html=1;aspect=fixed;shadow=0;strokeWidth=3;fillColor=#000000;" vertex="1">
          <mxGeometry as="geometry" x="517" y="654" width="5" height="5" />
        </mxCell>
        <mxCell id="ELINH8FFPVn-ywCd5U-3-72" value="" parent="1" style="ellipse;whiteSpace=wrap;html=1;aspect=fixed;shadow=0;strokeWidth=3;fillColor=#000000;" vertex="1">
          <mxGeometry as="geometry" x="537" y="654" width="5" height="5" />
        </mxCell>
      </root>
    </mxGraphModel>
  </diagram>
</mxfile>
